<svg width="94" height="39" viewBox="0 0 94 39" fill="none" xmlns="http://www.w3.org/2000/svg">
<path d="M2.964 25V6.8H4.888V25H2.964ZM10.8097 25V6.8H12.3957L24.9537 22.608H24.1217V6.8H26.0197V25H24.4337L11.9017 9.192H12.7337V25H10.8097Z" fill="#AC3B61"/>
<path d="M35.2361 25.13C34.1094 25.13 33.0434 24.974 32.0381 24.662C31.0328 24.3327 30.2441 23.9253 29.6721 23.44L30.5041 21.984C31.0588 22.4 31.7694 22.764 32.6361 23.076C33.5028 23.3707 34.4128 23.518 35.3661 23.518C36.6661 23.518 37.6021 23.3187 38.1741 22.92C38.7461 22.504 39.0321 21.958 39.0321 21.282C39.0321 20.7793 38.8674 20.3893 38.5381 20.112C38.2261 19.8173 37.8101 19.6007 37.2901 19.462C36.7701 19.306 36.1894 19.176 35.5481 19.072C34.9068 18.968 34.2654 18.8467 33.6241 18.708C33.0001 18.5693 32.4281 18.37 31.9081 18.11C31.3881 17.8327 30.9634 17.46 30.6341 16.992C30.3221 16.524 30.1661 15.9 30.1661 15.12C30.1661 14.3747 30.3741 13.7073 30.7901 13.118C31.2061 12.5287 31.8128 12.0693 32.6101 11.74C33.4248 11.3933 34.4128 11.22 35.5741 11.22C36.4581 11.22 37.3421 11.3413 38.2261 11.584C39.1101 11.8093 39.8381 12.1127 40.4101 12.494L39.6041 13.976C38.9974 13.56 38.3474 13.2653 37.6541 13.092C36.9608 12.9013 36.2674 12.806 35.5741 12.806C34.3434 12.806 33.4334 13.0227 32.8441 13.456C32.2721 13.872 31.9861 14.4093 31.9861 15.068C31.9861 15.588 32.1421 15.9953 32.4541 16.29C32.7834 16.5847 33.2081 16.8187 33.7281 16.992C34.2654 17.148 34.8461 17.278 35.4701 17.382C36.1114 17.486 36.7441 17.616 37.3681 17.772C38.0094 17.9107 38.5901 18.11 39.1101 18.37C39.6474 18.6127 40.0721 18.968 40.3841 19.436C40.7134 19.8867 40.8781 20.4847 40.8781 21.23C40.8781 22.0273 40.6528 22.7207 40.2021 23.31C39.7688 23.882 39.1274 24.3327 38.2781 24.662C37.4461 24.974 36.4321 25.13 35.2361 25.13ZM48.5814 25.13C47.2987 25.13 46.3107 24.7833 45.6174 24.09C44.9241 23.3967 44.5774 22.4173 44.5774 21.152V8.334H46.4234V21.048C46.4234 21.8453 46.6227 22.4607 47.0214 22.894C47.4374 23.3273 48.0267 23.544 48.7894 23.544C49.6041 23.544 50.2801 23.31 50.8174 22.842L51.4674 24.168C51.1034 24.4973 50.6614 24.74 50.1414 24.896C49.6387 25.052 49.1187 25.13 48.5814 25.13ZM42.1334 12.884V11.35H50.5834V12.884H42.1334ZM59.9095 25.13C58.5922 25.13 57.4048 24.8353 56.3475 24.246C55.3075 23.6393 54.4842 22.816 53.8775 21.776C53.2708 20.7187 52.9675 19.514 52.9675 18.162C52.9675 16.7927 53.2708 15.588 53.8775 14.548C54.4842 13.508 55.3075 12.6933 56.3475 12.104C57.3875 11.5147 58.5748 11.22 59.9095 11.22C61.2615 11.22 62.4575 11.5147 63.4975 12.104C64.5548 12.6933 65.3782 13.508 65.9675 14.548C66.5742 15.588 66.8775 16.7927 66.8775 18.162C66.8775 19.514 66.5742 20.7187 65.9675 21.776C65.3782 22.816 64.5548 23.6393 63.4975 24.246C62.4402 24.8353 61.2442 25.13 59.9095 25.13ZM59.9095 23.492C60.8975 23.492 61.7728 23.2753 62.5355 22.842C63.2982 22.3913 63.8962 21.7673 64.3295 20.97C64.7802 20.1553 65.0055 19.2193 65.0055 18.162C65.0055 17.0873 64.7802 16.1513 64.3295 15.354C63.8962 14.5567 63.2982 13.9413 62.5355 13.508C61.7728 13.0573 60.9062 12.832 59.9355 12.832C58.9648 12.832 58.0982 13.0573 57.3355 13.508C56.5728 13.9413 55.9662 14.5567 55.5155 15.354C55.0648 16.1513 54.8395 17.0873 54.8395 18.162C54.8395 19.2193 55.0648 20.1553 55.5155 20.97C55.9662 21.7673 56.5728 22.3913 57.3355 22.842C58.0982 23.2753 58.9562 23.492 59.9095 23.492ZM70.6463 25V11.35H72.4143V15.068L72.2323 14.418C72.6136 13.378 73.2549 12.5893 74.1563 12.052C75.0576 11.4973 76.1756 11.22 77.5103 11.22V13.014C77.4409 13.014 77.3716 13.014 77.3023 13.014C77.2329 12.9967 77.1636 12.988 77.0943 12.988C75.6556 12.988 74.5289 13.43 73.7143 14.314C72.8996 15.1807 72.4923 16.42 72.4923 18.032V25H70.6463ZM86.5497 25.13C85.1284 25.13 83.8804 24.8353 82.8057 24.246C81.7311 23.6393 80.8904 22.816 80.2837 21.776C79.6771 20.7187 79.3737 19.514 79.3737 18.162C79.3737 16.81 79.6597 15.614 80.2317 14.574C80.8211 13.534 81.6184 12.7193 82.6237 12.13C83.6464 11.5233 84.7904 11.22 86.0557 11.22C87.3384 11.22 88.4737 11.5147 89.4617 12.104C90.4671 12.676 91.2557 13.4907 91.8277 14.548C92.3997 15.588 92.6857 16.7927 92.6857 18.162C92.6857 18.2487 92.6771 18.344 92.6597 18.448C92.6597 18.5347 92.6597 18.63 92.6597 18.734H80.7777V17.356H91.6717L90.9437 17.902C90.9437 16.914 90.7271 16.0387 90.2937 15.276C89.8777 14.496 89.3057 13.8893 88.5777 13.456C87.8497 13.0227 87.0091 12.806 86.0557 12.806C85.1197 12.806 84.2791 13.0227 83.5337 13.456C82.7884 13.8893 82.2077 14.496 81.7917 15.276C81.3757 16.056 81.1677 16.9487 81.1677 17.954V18.24C81.1677 19.28 81.3931 20.1987 81.8437 20.996C82.3117 21.776 82.9531 22.3913 83.7677 22.842C84.5997 23.2753 85.5444 23.492 86.6017 23.492C87.4337 23.492 88.2051 23.3447 88.9157 23.05C89.6437 22.7553 90.2677 22.3047 90.7877 21.698L91.8277 22.894C91.2211 23.622 90.4584 24.1767 89.5397 24.558C88.6384 24.9393 87.6417 25.13 86.5497 25.13Z" fill="black"/>
<path d="M5.834 31.769C6.062 31.805 6.269 31.898 6.455 32.048C6.647 32.198 6.797 32.384 6.905 32.606C7.019 32.828 7.076 33.065 7.076 33.317C7.076 33.635 6.995 33.923 6.833 34.181C6.671 34.433 6.434 34.634 6.122 34.784C5.816 34.928 5.453 35 5.033 35H2.693V28.727H4.943C5.369 28.727 5.732 28.799 6.032 28.943C6.332 29.081 6.557 29.27 6.707 29.51C6.857 29.75 6.932 30.02 6.932 30.32C6.932 30.692 6.83 31.001 6.626 31.247C6.428 31.487 6.164 31.661 5.834 31.769ZM3.512 31.436H4.889C5.273 31.436 5.57 31.346 5.78 31.166C5.99 30.986 6.095 30.737 6.095 30.419C6.095 30.101 5.99 29.852 5.78 29.672C5.57 29.492 5.267 29.402 4.871 29.402H3.512V31.436ZM4.961 34.325C5.369 34.325 5.687 34.229 5.915 34.037C6.143 33.845 6.257 33.578 6.257 33.236C6.257 32.888 6.137 32.615 5.897 32.417C5.657 32.213 5.336 32.111 4.934 32.111H3.512V34.325H4.961ZM12.5865 30.068V35H11.7675V34.271C11.6115 34.523 11.3925 34.721 11.1105 34.865C10.8345 35.003 10.5285 35.072 10.1925 35.072C9.80853 35.072 9.46353 34.994 9.15753 34.838C8.85153 34.676 8.60853 34.436 8.42853 34.118C8.25453 33.8 8.16753 33.413 8.16753 32.957V30.068H8.97753V32.849C8.97753 33.335 9.10053 33.71 9.34653 33.974C9.59253 34.232 9.92853 34.361 10.3545 34.361C10.7925 34.361 11.1375 34.226 11.3895 33.956C11.6415 33.686 11.7675 33.293 11.7675 32.777V30.068H12.5865ZM18.2174 30.068L15.2474 37.322H14.4014L15.3734 34.946L13.3844 30.068H14.2934L15.8414 34.064L17.3714 30.068H18.2174ZM22.4391 30.743V33.65C22.4391 33.89 22.4901 34.061 22.5921 34.163C22.6941 34.259 22.8711 34.307 23.1231 34.307H23.7261V35H22.9881C22.5321 35 22.1901 34.895 21.9621 34.685C21.7341 34.475 21.6201 34.13 21.6201 33.65V30.743H20.9811V30.068H21.6201V28.826H22.4391V30.068H23.7261V30.743H22.4391ZM25.5374 30.869C25.6814 30.587 25.8854 30.368 26.1494 30.212C26.4194 30.056 26.7464 29.978 27.1304 29.978V30.824H26.9144C25.9964 30.824 25.5374 31.322 25.5374 32.318V35H24.7184V30.068H25.5374V30.869ZM32.5758 32.345C32.5758 32.501 32.5668 32.666 32.5488 32.84H28.6068C28.6368 33.326 28.8018 33.707 29.1018 33.983C29.4078 34.253 29.7768 34.388 30.2088 34.388C30.5628 34.388 30.8568 34.307 31.0908 34.145C31.3308 33.977 31.4988 33.755 31.5948 33.479H32.4768C32.3448 33.953 32.0808 34.34 31.6848 34.64C31.2888 34.934 30.7968 35.081 30.2088 35.081C29.7408 35.081 29.3208 34.976 28.9488 34.766C28.5828 34.556 28.2948 34.259 28.0848 33.875C27.8748 33.485 27.7698 33.035 27.7698 32.525C27.7698 32.015 27.8718 31.568 28.0758 31.184C28.2798 30.8 28.5648 30.506 28.9308 30.302C29.3028 30.092 29.7288 29.987 30.2088 29.987C30.6768 29.987 31.0908 30.089 31.4508 30.293C31.8108 30.497 32.0868 30.779 32.2788 31.139C32.4768 31.493 32.5758 31.895 32.5758 32.345ZM31.7298 32.174C31.7298 31.862 31.6608 31.595 31.5228 31.373C31.3848 31.145 31.1958 30.974 30.9558 30.86C30.7218 30.74 30.4608 30.68 30.1728 30.68C29.7588 30.68 29.4048 30.812 29.1108 31.076C28.8228 31.34 28.6578 31.706 28.6158 32.174H31.7298ZM36.0599 29.978C36.6599 29.978 37.1459 30.161 37.5179 30.527C37.8899 30.887 38.0759 31.409 38.0759 32.093V35H37.2659V32.21C37.2659 31.718 37.1429 31.343 36.8969 31.085C36.6509 30.821 36.3149 30.689 35.8889 30.689C35.4569 30.689 35.1119 30.824 34.8539 31.094C34.6019 31.364 34.4759 31.757 34.4759 32.273V35H33.6569V30.068H34.4759V30.77C34.6379 30.518 34.8569 30.323 35.1329 30.185C35.4149 30.047 35.7239 29.978 36.0599 29.978ZM39.1077 32.516C39.1077 32.012 39.2097 31.571 39.4137 31.193C39.6177 30.809 39.8967 30.512 40.2507 30.302C40.6107 30.092 41.0127 29.987 41.4567 29.987C41.8407 29.987 42.1977 30.077 42.5277 30.257C42.8577 30.431 43.1097 30.662 43.2837 30.95V28.34H44.1117V35H43.2837V34.073C43.1217 34.367 42.8817 34.61 42.5637 34.802C42.2457 34.988 41.8737 35.081 41.4477 35.081C41.0097 35.081 40.6107 34.973 40.2507 34.757C39.8967 34.541 39.6177 34.238 39.4137 33.848C39.2097 33.458 39.1077 33.014 39.1077 32.516ZM43.2837 32.525C43.2837 32.153 43.2087 31.829 43.0587 31.553C42.9087 31.277 42.7047 31.067 42.4467 30.923C42.1947 30.773 41.9157 30.698 41.6097 30.698C41.3037 30.698 41.0247 30.77 40.7727 30.914C40.5207 31.058 40.3197 31.268 40.1697 31.544C40.0197 31.82 39.9447 32.144 39.9447 32.516C39.9447 32.894 40.0197 33.224 40.1697 33.506C40.3197 33.782 40.5207 33.995 40.7727 34.145C41.0247 34.289 41.3037 34.361 41.6097 34.361C41.9157 34.361 42.1947 34.289 42.4467 34.145C42.7047 33.995 42.9087 33.782 43.0587 33.506C43.2087 33.224 43.2837 32.897 43.2837 32.525ZM49.7437 30.068L46.7737 37.322H45.9277L46.8997 34.946L44.9107 30.068H45.8197L47.3677 34.064L48.8977 30.068H49.7437ZM54.9734 30.743H53.9384V35H53.1194V30.743H52.4804V30.068H53.1194V29.717C53.1194 29.165 53.2604 28.763 53.5424 28.511C53.8304 28.253 54.2894 28.124 54.9194 28.124V28.808C54.5594 28.808 54.3044 28.88 54.1544 29.024C54.0104 29.162 53.9384 29.393 53.9384 29.717V30.068H54.9734V30.743ZM55.6224 32.516C55.6224 32.012 55.7244 31.571 55.9284 31.193C56.1324 30.809 56.4114 30.512 56.7654 30.302C57.1254 30.092 57.5244 29.987 57.9624 29.987C58.3944 29.987 58.7694 30.08 59.0874 30.266C59.4054 30.452 59.6424 30.686 59.7984 30.968V30.068H60.6264V35H59.7984V34.082C59.6364 34.37 59.3934 34.61 59.0694 34.802C58.7514 34.988 58.3794 35.081 57.9534 35.081C57.5154 35.081 57.1194 34.973 56.7654 34.757C56.4114 34.541 56.1324 34.238 55.9284 33.848C55.7244 33.458 55.6224 33.014 55.6224 32.516ZM59.7984 32.525C59.7984 32.153 59.7234 31.829 59.5734 31.553C59.4234 31.277 59.2194 31.067 58.9614 30.923C58.7094 30.773 58.4304 30.698 58.1244 30.698C57.8184 30.698 57.5394 30.77 57.2874 30.914C57.0354 31.058 56.8344 31.268 56.6844 31.544C56.5344 31.82 56.4594 32.144 56.4594 32.516C56.4594 32.894 56.5344 33.224 56.6844 33.506C56.8344 33.782 57.0354 33.995 57.2874 34.145C57.5394 34.289 57.8184 34.361 58.1244 34.361C58.4304 34.361 58.7094 34.289 58.9614 34.145C59.2194 33.995 59.4234 33.782 59.5734 33.506C59.7234 33.224 59.7984 32.897 59.7984 32.525ZM63.7564 35.081C63.3784 35.081 63.0394 35.018 62.7394 34.892C62.4394 34.76 62.2024 34.58 62.0284 34.352C61.8544 34.118 61.7584 33.851 61.7404 33.551H62.5864C62.6104 33.797 62.7244 33.998 62.9284 34.154C63.1384 34.31 63.4114 34.388 63.7474 34.388C64.0594 34.388 64.3054 34.319 64.4854 34.181C64.6654 34.043 64.7554 33.869 64.7554 33.659C64.7554 33.443 64.6594 33.284 64.4674 33.182C64.2754 33.074 63.9784 32.969 63.5764 32.867C63.2104 32.771 62.9104 32.675 62.6764 32.579C62.4484 32.477 62.2504 32.33 62.0824 32.138C61.9204 31.94 61.8394 31.682 61.8394 31.364C61.8394 31.112 61.9144 30.881 62.0644 30.671C62.2144 30.461 62.4274 30.296 62.7034 30.176C62.9794 30.05 63.2944 29.987 63.6484 29.987C64.1944 29.987 64.6354 30.125 64.9714 30.401C65.3074 30.677 65.4874 31.055 65.5114 31.535H64.6924C64.6744 31.277 64.5694 31.07 64.3774 30.914C64.1914 30.758 63.9394 30.68 63.6214 30.68C63.3274 30.68 63.0934 30.743 62.9194 30.869C62.7454 30.995 62.6584 31.16 62.6584 31.364C62.6584 31.526 62.7094 31.661 62.8114 31.769C62.9194 31.871 63.0514 31.955 63.2074 32.021C63.3694 32.081 63.5914 32.15 63.8734 32.228C64.2274 32.324 64.5154 32.42 64.7374 32.516C64.9594 32.606 65.1484 32.744 65.3044 32.93C65.4664 33.116 65.5504 33.359 65.5564 33.659C65.5564 33.929 65.4814 34.172 65.3314 34.388C65.1814 34.604 64.9684 34.775 64.6924 34.901C64.4224 35.021 64.1104 35.081 63.7564 35.081ZM69.1605 29.978C69.5325 29.978 69.8685 30.059 70.1685 30.221C70.4685 30.377 70.7025 30.614 70.8705 30.932C71.0445 31.25 71.1315 31.637 71.1315 32.093V35H70.3215V32.21C70.3215 31.718 70.1985 31.343 69.9525 31.085C69.7065 30.821 69.3705 30.689 68.9445 30.689C68.5125 30.689 68.1675 30.824 67.9095 31.094C67.6575 31.364 67.5315 31.757 67.5315 32.273V35H66.7125V28.34H67.5315V30.77C67.6935 30.518 67.9155 30.323 68.1975 30.185C68.4855 30.047 68.8065 29.978 69.1605 29.978ZM72.8924 29.267C72.7364 29.267 72.6044 29.213 72.4964 29.105C72.3884 28.997 72.3344 28.865 72.3344 28.709C72.3344 28.553 72.3884 28.421 72.4964 28.313C72.6044 28.205 72.7364 28.151 72.8924 28.151C73.0424 28.151 73.1684 28.205 73.2704 28.313C73.3784 28.421 73.4324 28.553 73.4324 28.709C73.4324 28.865 73.3784 28.997 73.2704 29.105C73.1684 29.213 73.0424 29.267 72.8924 29.267ZM73.2884 30.068V35H72.4694V30.068H73.2884ZM76.8352 35.081C76.3732 35.081 75.9532 34.976 75.5752 34.766C75.2032 34.556 74.9092 34.259 74.6932 33.875C74.4832 33.485 74.3782 33.035 74.3782 32.525C74.3782 32.021 74.4862 31.577 74.7022 31.193C74.9242 30.803 75.2242 30.506 75.6022 30.302C75.9802 30.092 76.4032 29.987 76.8712 29.987C77.3392 29.987 77.7622 30.092 78.1402 30.302C78.5182 30.506 78.8152 30.8 79.0312 31.184C79.2532 31.568 79.3642 32.015 79.3642 32.525C79.3642 33.035 79.2502 33.485 79.0222 33.875C78.8002 34.259 78.4972 34.556 78.1132 34.766C77.7292 34.976 77.3032 35.081 76.8352 35.081ZM76.8352 34.361C77.1292 34.361 77.4052 34.292 77.6632 34.154C77.9212 34.016 78.1282 33.809 78.2842 33.533C78.4462 33.257 78.5272 32.921 78.5272 32.525C78.5272 32.129 78.4492 31.793 78.2932 31.517C78.1372 31.241 77.9332 31.037 77.6812 30.905C77.4292 30.767 77.1562 30.698 76.8622 30.698C76.5622 30.698 76.2862 30.767 76.0342 30.905C75.7882 31.037 75.5902 31.241 75.4402 31.517C75.2902 31.793 75.2152 32.129 75.2152 32.525C75.2152 32.927 75.2872 33.266 75.4312 33.542C75.5812 33.818 75.7792 34.025 76.0252 34.163C76.2712 34.295 76.5412 34.361 76.8352 34.361ZM82.844 29.978C83.444 29.978 83.93 30.161 84.302 30.527C84.674 30.887 84.86 31.409 84.86 32.093V35H84.05V32.21C84.05 31.718 83.927 31.343 83.681 31.085C83.435 30.821 83.099 30.689 82.673 30.689C82.241 30.689 81.896 30.824 81.638 31.094C81.386 31.364 81.26 31.757 81.26 32.273V35H80.441V30.068H81.26V30.77C81.422 30.518 81.641 30.323 81.917 30.185C82.199 30.047 82.508 29.978 82.844 29.978Z" fill="black"/>
</svg>
