<svg xmlns="http://www.w3.org/2000/svg" xmlns:xlink="http://www.w3.org/1999/xlink" xml:space="preserve" width="210mm" height="210mm" style="shape-rendering:geometricPrecision; text-rendering:geometricPrecision; image-rendering:optimizeQuality; fill-rule:evenodd; clip-rule:evenodd" viewBox="0 0 21000 21000">
 <defs>
  <style type="text/css">
   <![CDATA[
    .fil1 {fill:#FEFEFE}
    .fil0 {fill:#424242}
   ]]>
  </style>
 </defs>
 <g id="Layer_x0020_1">
  <metadata id="CorelCorpID_0Corel-Layer"></metadata>
  <g id="_2839923280544">
   <circle class="fil0" cx="10500" cy="10500" r="6000"></circle>
   <path class="fil1" d="M8940 8795l-1574 0c-166,0 -315,130 -302,287l351 4490c34,436 375,795 835,795l2250 0 2250 0c460,0 801,-359 835,-795l351 -4490c13,-157 -136,-287 -302,-287l-1574 0c-28,-503 -192,-1607 -1079,-2030 -376,-180 -600,-168 -945,-8 -901,416 -1068,1532 -1096,2038zm2602 1346c-337,-381 -821,-521 -1305,-356 -181,61 -353,165 -484,304 -125,130 -216,295 -233,477 -33,344 195,594 476,756 158,91 327,164 494,237 184,80 390,166 555,280 137,94 274,220 343,374 54,124 55,254 9,381 -29,81 -83,150 -147,206 -146,126 -349,193 -537,220 -224,30 -460,9 -673,-68 -179,-64 -340,-167 -465,-312 -47,-54 -131,-60 -185,-13 -55,47 -61,130 -14,185 155,179 354,307 576,387 251,91 532,117 797,81 238,-33 488,-122 672,-282 100,-86 178,-191 223,-316 70,-193 68,-387 -16,-575 -88,-200 -256,-362 -434,-484 -181,-125 -398,-217 -599,-305 -158,-68 -320,-138 -469,-223 -180,-105 -367,-276 -345,-505 11,-122 79,-233 162,-320 103,-109 237,-189 378,-237 379,-128 761,-16 1025,282 48,54 131,59 185,11 54,-48 59,-131 11,-185zm-1042 -1346l-1101 0c24,-405 148,-1216 739,-1568 206,-123 493,-139 728,2 588,353 711,1161 735,1566l-1101 0z"></path>
  </g>
 </g>
</svg>