<svg xmlns="http://www.w3.org/2000/svg" xmlns:xlink="http://www.w3.org/1999/xlink" xml:space="preserve" width="210mm" height="210mm" style="shape-rendering:geometricPrecision; text-rendering:geometricPrecision; image-rendering:optimizeQuality; fill-rule:evenodd; clip-rule:evenodd" viewBox="0 0 21000 21000">
 <defs>
  <style type="text/css">
   <![CDATA[
    .fil8 {fill:#FEFEFE}
    .fil1 {fill:#FEFEFE}
    .fil10 {fill:#E5E6E5}
    .fil7 {fill:#D9E138}
    .fil6 {fill:#99CC64}
    .fil0 {fill:#424242}
    .fil2 {fill:#58A056}
    .fil9 {fill:#282928}
    .fil4 {fill:#717171}
    .fil3 {fill:#888888}
    .fil5 {fill:#969696}
    .fil12 {fill:#BABABA}
    .fil11 {fill:#CCCCCC}
   ]]>
  </style>
 </defs>
 <g id="Layer_x0020_1">
  <metadata id="CorelCorpID_0Corel-Layer"></metadata>
  <g id="_2839915163584">
   <circle class="fil0" cx="10500" cy="10500" r="6000"></circle>
   <circle class="fil1" cx="10500" cy="10500" r="5421"></circle>
   <path class="fil2" d="M13342 8470l0 3586c0,863 -671,1584 -1534,1584l-4192 0 0 -5170c0,0 2387,-159 2863,385 475,-544 2862,-385 2863,-385z"></path>
   <path class="fil3" d="M7701 8550l-10 4994 2825 11 -35 -4615c-523,-607 -2780,-390 -2780,-390z"></path>
   <path class="fil4" d="M13277 8547l-12 3594c0,811 -669,1414 -1485,1414l-1264 -4 -37 -4625c449,-511 2798,-379 2798,-379z"></path>
   <path class="fil5" d="M10508 13551l-2187 -4 0 -81c0,-1005 983,-1827 2179,-1834l8 1919z"></path>
   <polygon class="fil6" points="10516,13555 10508,13555 10509,12594 10516,13503 "></polygon>
   <path class="fil3" d="M11780 13555l-1264 -4 0 -48 -7 -909 0 -953c12,-7 -9,-8 25,-8 5,0 10,0 15,0 1083,0 2013,719 2175,1585 0,0 -194,161 -460,263 -152,48 -315,74 -484,74z"></path>
   <path class="fil7" d="M10516 11632c-2,0 -5,0 -8,0l0 0 8 0z"></path>
   <path class="fil8" d="M10043 11436c-50,49 -105,94 -163,133 41,-40 95,-88 163,-133z"></path>
   <path class="fil8" d="M10330 10557c0,628 -511,1139 -1139,1139 -629,0 -1140,-511 -1140,-1139 0,-629 511,-1140 1140,-1140 628,0 1139,511 1139,1140z"></path>
   <path class="fil9" d="M9880 11569c58,-39 113,-84 163,-133 -68,45 -122,93 -163,133zm-13 110c106,-64 201,-142 285,-233 -150,80 -250,191 -285,233z"></path>
   <path class="fil8" d="M12958 10578c0,628 -511,1140 -1140,1140 -628,0 -1139,-512 -1139,-1140 0,-628 511,-1139 1139,-1139 629,0 1140,511 1140,1139z"></path>
   <path class="fil10" d="M12935 10643c0,593 -481,1075 -1075,1075 -593,0 -1181,-461 -1181,-1054 0,-105 15,-197 43,-292 55,541 635,1061 1176,933 430,-102 787,-314 1029,-868 8,74 8,85 8,206z"></path>
   <path class="fil10" d="M10312 10646c0,593 -465,1031 -1058,1050 -652,22 -1182,-460 -1182,-1054 0,-105 15,-196 43,-292 55,542 620,934 1176,934 489,0 887,-334 1018,-781 3,37 3,105 3,143z"></path>
   <path class="fil0" d="M10083 10583c0,419 -340,759 -760,759 -419,0 -759,-340 -759,-759 0,-112 24,-218 67,-314 69,99 183,164 312,164 210,0 380,-170 380,-380 0,-85 -28,-163 -75,-226 25,-3 50,-4 75,-4 420,0 760,340 760,760z"></path>
   <path class="fil0" d="M12390 10561c0,420 -340,760 -759,760 -420,0 -760,-340 -760,-760 0,-111 24,-218 68,-313 68,99 182,164 312,164 210,0 380,-170 380,-380 0,-85 -28,-163 -75,-227 24,-2 49,-3 75,-3 419,0 759,340 759,759z"></path>
   <path class="fil0" d="M13277 12053c0,826 -651,1502 -1449,1502l-4105 0 0 -5008c705,-39 2115,-99 2712,361l46 32 82 -56c537,-408 2009,-376 2714,-337l0 3506zm-2785 -4522c799,0 1042,642 1104,876 -536,57 -917,167 -1111,326 -216,-163 -554,-270 -1033,-320 54,-228 276,-882 1040,-882zm2876 851c-6,-1 -610,-40 -1263,-12 -87,4 -171,8 -251,14 -25,-103 -87,-310 -225,-518 -178,-270 -475,-592 -1137,-592 -592,0 -918,323 -1087,595 -130,209 -188,417 -210,519 -96,-7 -197,-13 -302,-18 -654,-28 -1256,11 -1262,12l-79 5 0 5339 4276 0c893,0 1620,-753 1620,-1673l0 -3666 -80 -5z"></path>
   <path class="fil0" d="M11818 11718c-628,0 -1139,-512 -1139,-1140 0,-628 511,-1139 1139,-1139 629,0 1140,511 1140,1139 0,628 -511,1140 -1140,1140zm-1310 612l-570 -635c72,-80 257,-254 511,-272 209,-15 422,70 632,276l-573 631zm-1317 -634c-629,0 -1140,-511 -1140,-1139 0,-629 511,-1140 1140,-1140 628,0 1139,511 1139,1140 0,628 -511,1139 -1139,1139zm2627 -2428c-722,0 -1310,588 -1310,1310 0,283 90,546 244,760 -104,-36 -208,-50 -312,-43 -71,5 -137,20 -197,41 162,-218 258,-487 258,-779 0,-723 -588,-1311 -1310,-1311 -723,0 -1311,588 -1311,1311 0,722 588,1310 1311,1310 215,0 419,-52 599,-145l718 800 708 -781c180,94 385,147 602,147 723,0 1311,-587 1311,-1310 0,-722 -588,-1310 -1311,-1310z"></path>
   <path class="fil11" d="M11081 11699l-573 631 -570 -635c72,-80 257,-254 511,-272 209,-15 421,78 632,276z"></path>
   <path class="fil12" d="M11081 11699l-572 631 0 -908c161,-19 450,130 572,277z"></path>
  </g>
 </g>
</svg>